<?xml version="1.0" encoding="UTF-8" standalone="no"?>
<!-- Created with Inkscape (http://www.inkscape.org/) -->

<svg
   xmlns:dc="http://purl.org/dc/elements/1.1/"
   xmlns:cc="http://creativecommons.org/ns#"
   xmlns:rdf="http://www.w3.org/1999/02/22-rdf-syntax-ns#"
   xmlns:svg="http://www.w3.org/2000/svg"
   xmlns="http://www.w3.org/2000/svg"
   xmlns:sodipodi="http://sodipodi.sourceforge.net/DTD/sodipodi-0.dtd"
   xmlns:inkscape="http://www.inkscape.org/namespaces/inkscape"
   id="svg3020"
   version="1.1"
   inkscape:version="0.48.3.1 r9886"
   width="761.57111"
   height="378.08762"
   xml:space="preserve"
   sodipodi:docname="uqac-logo.pdf"><metadata
     id="metadata3026"><rdf:RDF><cc:Work
         rdf:about=""><dc:format>image/svg+xml</dc:format><dc:type
           rdf:resource="http://purl.org/dc/dcmitype/StillImage" /><dc:title></dc:title></cc:Work></rdf:RDF></metadata><defs
     id="defs3024"><clipPath
       clipPathUnits="userSpaceOnUse"
       id="clipPath3034"><path
         d="m 0,792 935.484,0 0,-792 L 0,0 0,792 z"
         id="path3036"
         inkscape:connector-curvature="0" /></clipPath></defs><sodipodi:namedview
     pagecolor="#ffffff"
     bordercolor="#666666"
     borderopacity="1"
     objecttolerance="10"
     gridtolerance="10"
     guidetolerance="10"
     inkscape:pageopacity="0"
     inkscape:pageshadow="2"
     inkscape:window-width="640"
     inkscape:window-height="480"
     id="namedview3022"
     showgrid="false"
     fit-margin-top="10"
     fit-margin-left="10"
     fit-margin-right="10"
     fit-margin-bottom="10"
     inkscape:zoom="0.23838384"
     inkscape:cx="397.78383"
     inkscape:cy="170.62388"
     inkscape:window-x="7"
     inkscape:window-y="24"
     inkscape:window-maximized="0"
     inkscape:current-layer="g3028" /><g
     id="g3028"
     inkscape:groupmode="layer"
     inkscape:label="uqac-logo"
     transform="matrix(1.25,0,0,-1.25,-186.89366,702.46375)"><g
       id="g3030"><g
         id="g3032"
         clip-path="url(#clipPath3034)"><g
           id="g3038"
           transform="translate(301.002,453.1787)"><path
             d="m 0,0 c -7.297,-9.619 -20.874,-13.59 -32.491,-13.59 -10.94,0 -22.548,3.477 -30.004,11.596 -8.787,9.609 -8.46,20.721 -8.46,32.666 l 0,44.261 c 0,7.452 1.172,19.553 -7.285,22.698 l 0,0.503 31.491,0 0,-0.503 c -8.29,-3.145 -7.294,-15.246 -7.294,-22.698 l 0,-44.261 c 0,-22.051 9.287,-32.324 26.357,-32.324 9.286,0 18.739,3.798 24.209,11.599 C 0.166,14.918 0,19.066 0,25.03 l 0,49.903 c 0,7.452 1.002,19.553 -7.297,22.698 l 0,0.503 31.508,0 0.161,-0.503 C 15.924,94.486 16.908,82.385 16.908,74.759 l 0,-62.499 c 0,-7.455 -0.984,-19.554 7.464,-22.698 l 0,-0.502 L 0,-10.94 0,0 z"
             style="fill:#466d12;fill-opacity:1;fill-rule:nonzero;stroke:none"
             id="path3040"
             inkscape:connector-curvature="0" /></g><g
           id="g3042"
           transform="translate(436.9473,494.459)"><path
             d="m 0,0 c 0,23.037 -14.254,47.57 -42.098,47.57 -26.525,0 -41.611,-20.545 -41.611,-42.263 0,-27.026 17.402,-48.24 42.43,-48.24 C -16.403,-42.933 0,-24.378 0,0 m 43.6,-73.605 c -5.633,-5.301 -13.26,-8.453 -21.049,-8.453 -16.42,0 -40.127,18.727 -52.887,28.84 -4.477,-0.996 -8.953,-1.652 -13.588,-1.652 -32.334,0 -58.681,24.367 -58.681,57.182 0,33.983 28.835,57.2 61.498,57.2 32.657,0 60.009,-22.383 60.009,-56.199 0,-19.563 -11.272,-40.624 -29.507,-49.076 13.754,-12.422 32.488,-27.842 51.878,-27.842 l 2.327,0 z"
             style="fill:#466d12;fill-opacity:1;fill-rule:nonzero;stroke:none"
             id="path3044"
             inkscape:connector-curvature="0" /></g><g
           id="g3046"
           transform="translate(518.1895,537.2197)"><path
             d="m 0,0 -16.416,-41.773 32.672,0 L 0,0 z m -20.723,-54.038 -8.617,-23.366 c -3.484,-9.287 -4.644,-14.092 3.319,-17.075 l 0,-0.502 -30.51,0 0,0.502 c 9.621,4.797 12.435,14.079 16.08,23.532 L -12.76,-1.81 c 2.321,5.952 5.465,12.92 -2.488,15.4 l 0,0.503 26.195,0 34.479,-85.04 c 3.808,-9.453 6.795,-18.735 16.244,-23.532 l 0,-0.502 -33.99,0 0,0.502 c 8.125,3.647 6.808,5.461 2.33,17.075 l -8.959,23.366 -41.774,0 z"
             style="fill:#466d12;fill-opacity:1;fill-rule:nonzero;stroke:none"
             id="path3048"
             inkscape:connector-curvature="0" /></g><g
           id="g3050"
           transform="translate(671.873,530.7539)"><path
             d="m 0,0 c -9.115,5.811 -19.732,9.447 -30.668,9.447 -22.873,0 -38.781,-16.741 -38.781,-40.776 0,-24.359 16.572,-46.076 42.094,-46.076 12.427,0 24.871,4.48 35.316,10.432 l 0.49,0 L 0,-86.198 c -7.793,-3.647 -16.41,-4.967 -25.021,-4.967 -39.141,0 -63.336,21.875 -63.336,57.348 0,34.319 24.195,57.034 58.181,57.034 10.113,0 20.393,-1.824 30.176,-4.142 L 0,0 z"
             style="fill:#466d12;fill-opacity:1;fill-rule:nonzero;stroke:none"
             id="path3052"
             inkscape:connector-curvature="0" /></g><g
           id="g3054"
           transform="translate(193.082,355.6865)"><path
             d="m 0,0 c 0.184,-11.365 -5.807,-18.389 -17.781,-18.389 -11.979,0 -17.965,7.024 -17.782,18.389 l 0,26.639 6.11,0 0,-28.108 c 0.183,-7.574 4.707,-11.668 11.672,-11.668 6.966,0 11.486,4.094 11.669,11.668 l 0,28.108 6.112,0 L 0,0 z"
             style="fill:#231f20;fill-opacity:1;fill-rule:nonzero;stroke:none"
             id="path3056"
             inkscape:connector-curvature="0" /></g><g
           id="g3058"
           transform="translate(209.0029,364.3643)"><path
             d="m 0,0 0.123,0 c 1.955,3.852 6.232,5.437 9.288,5.437 2.138,0 11.608,-0.55 11.608,-10.386 l 0,-21.205 -5.803,0 0,19.308 c 0,5.075 -2.143,7.823 -7.028,7.823 0,0 -3.179,0.182 -5.625,-2.263 -0.851,-0.853 -2.44,-2.198 -2.44,-8.188 l 0,-16.68 -5.806,0 0,30.675 L 0,4.521 0,0 z"
             style="fill:#231f20;fill-opacity:1;fill-rule:nonzero;stroke:none"
             id="path3060"
             inkscape:connector-curvature="0" /></g><path
           d="m 239.539,368.886 5.801,0 0,-30.676 -5.801,0 0,30.676 z m -0.551,13.439 6.902,0 0,-6.287 -6.902,0 0,6.287 z"
           style="fill:#231f20;fill-opacity:1;fill-rule:nonzero;stroke:none"
           id="path3062"
           inkscape:connector-curvature="0" /><g
           id="g3064"
           transform="translate(263.4785,338.21)"><path
             d="m 0,0 -12.83,30.676 6.416,0 9.776,-24.322 9.531,24.322 6.355,0 L 5.805,0 0,0 z"
             style="fill:#231f20;fill-opacity:1;fill-rule:nonzero;stroke:none"
             id="path3066"
             inkscape:connector-curvature="0" /></g><g
           id="g3068"
           transform="translate(307.1494,356.4844)"><path
             d="M 0,0 C 0.123,5.128 -2.198,9.099 -7.821,9.099 -12.648,9.099 -15.52,5.009 -15.52,0 L 0,0 z m -15.52,-4.039 c -0.424,-5.375 1.773,-10.935 7.699,-10.935 4.523,0 6.781,1.771 7.454,6.233 l 6.114,0 c -0.92,-6.966 -6.297,-10.446 -13.629,-10.446 -9.836,0 -13.746,6.961 -13.746,16.008 0,8.981 4.52,16.495 14.236,16.495 C 1.771,13.134 6.112,7.327 6.112,-1.168 l 0,-2.871 -21.632,0 z"
             style="fill:#231f20;fill-opacity:1;fill-rule:nonzero;stroke:none"
             id="path3070"
             inkscape:connector-curvature="0" /></g><g
           id="g3072"
           transform="translate(326.626,338.21)"><path
             d="m 0,0 -5.807,0 0,30.676 5.807,0 0,-5.927 0.12,0 c 0.856,4.218 4.768,6.356 8.983,6.356 0.734,0 1.343,-0.064 2.017,-0.064 l 0,-5.5 C 10.327,25.848 9.41,25.848 8.612,25.848 1.282,25.602 0,21.69 0,15.215 L 0,0 z"
             style="fill:#231f20;fill-opacity:1;fill-rule:nonzero;stroke:none"
             id="path3074"
             inkscape:connector-curvature="0" /></g><g
           id="g3076"
           transform="translate(352.9531,369.8008)"><path
             d="m 0,0 c 5.806,0 12.342,-2.444 11.916,-9.405 l -6.11,0 c 0.243,3.91 -2.751,5.187 -6.114,5.187 -3.114,0 -5.618,-1.465 -5.618,-4.886 0,-3.42 5.252,-3.668 7.455,-4.34 5.194,-1.709 11.179,-2.319 11.179,-9.228 0,-7.515 -7.331,-9.831 -13.626,-9.831 -6.414,0 -11.795,2.93 -11.728,10.019 l 6.107,0 c 0.123,-3.792 2.689,-5.806 6.231,-5.806 3.421,0 6.906,1.342 6.906,5.315 0,6.847 -18.635,1.71 -18.635,13.689 C -12.037,-2.871 -5.559,0 0,0"
             style="fill:#231f20;fill-opacity:1;fill-rule:nonzero;stroke:none"
             id="path3078"
             inkscape:connector-curvature="0" /></g><path
           d="m 372.613,368.886 5.802,0 0,-30.676 -5.802,0 0,30.676 z m -0.55,13.439 6.901,0 0,-6.287 -6.901,0 0,6.287 z"
           style="fill:#231f20;fill-opacity:1;fill-rule:nonzero;stroke:none"
           id="path3080"
           inkscape:connector-curvature="0" /><g
           id="g3082"
           transform="translate(388.5488,368.8857)"><path
             d="m 0,0 0,6.539 5.803,1.83 0,-8.369 7.088,0.183 0,-4.337 -7.088,0.06 0,-19.802 c 0,-2.196 1.713,-3.238 3.793,-3.238 0.916,0 2.136,0.124 3.054,0.368 l 0,-4.457 c -1.346,-0.062 -2.629,-0.365 -3.974,-0.365 -1.403,0 -2.507,0.059 -3.911,0.303 -0.917,0.181 -2.441,0.672 -3.421,2.014 C 0.303,-27.807 0,-27.677 0,-23.588 l 0,19.494 -5.256,-0.06 0,4.337 L 0,0 z"
             style="fill:#231f20;fill-opacity:1;fill-rule:nonzero;stroke:none"
             id="path3084"
             inkscape:connector-curvature="0" /></g><g
           id="g3086"
           transform="translate(427.8311,382.3252)"><path
             d="m 0,0 -7.396,-8.797 -3.968,0 L -6.355,0 0,0 z m -1.222,-25.841 c 0.123,5.128 -2.199,9.099 -7.821,9.099 -4.827,0 -7.697,-4.09 -7.697,-9.099 l 15.518,0 z M -16.74,-29.88 c -0.427,-5.375 1.772,-10.934 7.697,-10.934 4.522,0 6.781,1.77 7.453,6.232 l 6.116,0 c -0.922,-6.966 -6.297,-10.445 -13.63,-10.445 -9.836,0 -13.747,6.961 -13.747,16.007 0,8.981 4.521,16.496 14.237,16.496 9.164,-0.183 13.506,-5.99 13.506,-14.485 l 0,-2.871 -21.632,0 z"
             style="fill:#231f20;fill-opacity:1;fill-rule:nonzero;stroke:none"
             id="path3088"
             inkscape:connector-curvature="0" /></g><g
           id="g3090"
           transform="translate(468.4395,341.3262)"><path
             d="M 0,0 C 7.023,0 8.676,6.54 8.676,12.282 8.676,17.841 6.6,24.445 0,24.445 -6.967,24.445 -8.678,18.029 -8.678,12.282 -8.678,6.54 -6.541,0 0,0 m 8.613,40.999 5.807,0 0,-38.676 c 0,-1.834 0.182,-3.67 0.307,-5.439 l -5.932,0 -0.182,4.584 0,0.304 -0.119,0 c -2.08,-4.277 -6.113,-5.8 -10.574,-5.8 -9.102,0 -12.706,8.365 -12.706,16.25 0,8.312 4.212,16.253 13.747,16.253 3.91,0 7.76,-1.406 9.533,-5.07 l 0.119,0 0,17.594 z"
             style="fill:#231f20;fill-opacity:1;fill-rule:nonzero;stroke:none"
             id="path3092"
             inkscape:connector-curvature="0" /></g><g
           id="g3094"
           transform="translate(512.5352,368.8857)"><path
             d="m 0,0 5.801,0 0,-30.676 -5.684,0 0,4.524 -0.117,0 c -2.322,-3.852 -6.234,-5.436 -10.51,-5.436 -6.416,0 -10.086,4.887 -10.086,11.059 l 0,20.529 5.809,0 0,-18.148 c 0,-5.316 1.217,-9.227 6.781,-9.227 2.383,0 5.619,1.223 6.842,4.398 1.1,2.873 1.164,6.477 1.164,7.209 L 0,0 z"
             style="fill:#231f20;fill-opacity:1;fill-rule:nonzero;stroke:none"
             id="path3096"
             inkscape:connector-curvature="0" /></g><g
           id="g3098"
           transform="translate(562.0625,377.9883)"><path
             d="m 0,0 c -10.451,0 -13.322,-9.347 -13.322,-17.722 0,-8.429 2.871,-17.716 13.322,-17.716 10.449,0 13.318,9.35 13.318,17.716 C 13.318,-9.286 10.449,0 0,0 m 22.73,-39.778 c -5.255,0.121 -10.574,0.121 -15.826,0 C 5.742,-39.96 4.578,-40.206 3.479,-40.325 2.32,-40.513 1.158,-40.632 0,-40.69 c -13.689,0 -19.738,10.503 -19.738,22.968 0,12.465 6.049,22.979 19.738,22.979 13.686,0 19.734,-10.514 19.734,-22.979 0,-6.351 -2.201,-13.44 -8.068,-17.961 l 0.125,-0.121 c 2.195,0.491 4.522,0.914 6.904,0.914 1.342,0 2.692,0 4.035,-0.246 l 0,-4.642 z"
             style="fill:#231f20;fill-opacity:1;fill-rule:nonzero;stroke:none"
             id="path3100"
             inkscape:connector-curvature="0" /></g><g
           id="g3102"
           transform="translate(610.6738,368.8857)"><path
             d="m 0,0 5.801,0 0,-30.676 -5.682,0 0,4.524 -0.119,0 c -2.322,-3.852 -6.232,-5.436 -10.51,-5.436 -6.418,0 -10.084,4.887 -10.084,11.059 l 0,20.529 5.805,0 0,-18.148 c 0,-5.316 1.219,-9.227 6.783,-9.227 2.383,0 5.619,1.223 6.842,4.398 1.1,2.873 1.164,6.477 1.164,7.209 L 0,0 z"
             style="fill:#231f20;fill-opacity:1;fill-rule:nonzero;stroke:none"
             id="path3104"
             inkscape:connector-curvature="0" /></g><g
           id="g3106"
           transform="translate(646.6406,382.3252)"><path
             d="m 0,0 -7.391,-8.797 -3.974,0 L -6.357,0 0,0 z m -1.223,-25.841 c 0.123,5.128 -2.199,9.099 -7.822,9.099 -4.826,0 -7.697,-4.09 -7.697,-9.099 l 15.519,0 z m -15.519,-4.039 c -0.432,-5.375 1.773,-10.934 7.697,-10.934 4.524,0 6.781,1.77 7.455,6.232 l 6.113,0 c -0.921,-6.966 -6.296,-10.445 -13.628,-10.445 -9.836,0 -13.749,6.961 -13.749,16.007 0,8.981 4.522,16.496 14.239,16.496 9.162,-0.183 13.506,-5.99 13.506,-14.485 l 0,-2.871 -21.633,0 z"
             style="fill:#231f20;fill-opacity:1;fill-rule:nonzero;stroke:none"
             id="path3108"
             inkscape:connector-curvature="0" /></g><g
           id="g3110"
           transform="translate(673.1465,365.583)"><path
             d="m 0,0 c -6.598,0 -8.678,-6.476 -8.678,-12.035 0,-5.746 1.653,-12.037 8.678,-12.037 6.539,0 8.678,6.291 8.678,12.037 C 8.678,-6.291 6.965,0 0,0 m -8.799,-27.373 -5.986,0 c 0.121,1.836 0.303,3.666 0.303,4.889 l 0,39.226 5.804,0 0,-17.594 0.123,0 c 1.774,3.665 5.623,5.07 9.535,5.07 9.528,0 13.805,-7.941 13.805,-16.253 0,-7.885 -3.664,-16.25 -12.771,-16.25 -4.461,0 -8.491,1.523 -10.569,5.801 l -0.123,0 0.123,-0.305 -0.244,-4.584 z"
             style="fill:#231f20;fill-opacity:1;fill-rule:nonzero;stroke:none"
             id="path3112"
             inkscape:connector-curvature="0" /></g><g
           id="g3114"
           transform="translate(714.248,356.4844)"><path
             d="M 0,0 C 0.121,5.128 -2.199,9.099 -7.822,9.099 -12.65,9.099 -15.52,5.009 -15.52,0 L 0,0 z m -15.52,-4.039 c -0.427,-5.375 1.772,-10.935 7.698,-10.935 4.521,0 6.779,1.771 7.453,6.233 l 6.115,0 c -0.922,-6.966 -6.299,-10.446 -13.631,-10.446 -9.834,0 -13.746,6.961 -13.746,16.008 0,8.981 4.522,16.495 14.236,16.495 C 1.771,13.134 6.111,7.327 6.111,-1.168 l 0,-2.871 -21.631,0 z"
             style="fill:#231f20;fill-opacity:1;fill-rule:nonzero;stroke:none"
             id="path3116"
             inkscape:connector-curvature="0" /></g><g
           id="g3118"
           transform="translate(744.7188,359.0488)"><path
             d="m 0,0 c -0.303,3.851 -2.139,6.534 -6.291,6.534 -5.559,0 -7.699,-4.822 -7.699,-12.035 0,-7.212 2.14,-12.037 7.699,-12.037 3.85,0 6.23,2.504 6.539,6.905 l 5.805,0 c -0.49,-6.905 -5.623,-11.118 -12.405,-11.118 -9.841,0 -13.752,6.961 -13.752,16.008 0,8.98 4.524,16.495 14.243,16.495 C 0.613,10.752 5.5,6.657 5.807,0 L 0,0 z"
             style="fill:#231f20;fill-opacity:1;fill-rule:nonzero;stroke:none"
             id="path3120"
             inkscape:connector-curvature="0" /></g><g
           id="g3122"
           transform="translate(294.9395,283.3223)"><path
             d="m 0,0 c -3.544,-0.179 -8.246,-1.466 -8.246,-5.925 0,-3.789 2.624,-5.683 6.049,-5.683 6.842,0 8.124,5.924 8.004,11.608 L 0,0 z m -3.237,29.208 5.01,-8.798 -3.97,0 -7.396,8.798 6.356,0 z M 5.807,4.036 c 0,5.315 -0.307,8.428 -6.479,8.428 -2.932,0 -5.683,-1.707 -5.742,-4.886 l -6.109,0 c 0.302,6.722 5.558,9.105 11.608,9.105 6.292,0 12.524,-1.893 12.524,-10.446 l 0,-14.668 c 0,-1.341 0.064,-3.912 0.247,-6.479 l -3.911,0 c -0.549,0 -1.588,-0.302 -1.652,0.43 -0.12,1.407 -0.244,2.747 -0.303,4.154 l -0.123,0 c -1.896,-3.853 -5.316,-5.495 -9.535,-5.495 -5.316,0 -10.691,2.748 -10.691,8.733 0,8.616 7.637,11.124 14.91,11.124 l 5.256,0 z"
             style="fill:#231f20;fill-opacity:1;fill-rule:nonzero;stroke:none"
             id="path3124"
             inkscape:connector-curvature="0" /></g><g
           id="g3126"
           transform="translate(357.9121,301.1631)"><path
             d="m 0,0 c -0.302,4.218 -4.828,7.029 -9.348,7.029 -10.875,0 -12.893,-9.961 -12.893,-17.72 0,-9.1 2.751,-17.719 12.345,-17.719 4.703,0 8.979,2.32 9.712,7.024 l 6.42,0 c -0.613,-7.389 -8.07,-12.276 -16.681,-12.276 -13.02,0 -18.212,10.628 -18.212,22.971 0,10.82 4.766,23.404 19.553,22.977 C -0.609,12.039 5.747,7.885 6.42,0 L 0,0 z"
             style="fill:#231f20;fill-opacity:1;fill-rule:nonzero;stroke:none"
             id="path3128"
             inkscape:connector-curvature="0" /></g><g
           id="g3130"
           transform="translate(370.8457,268.4121)"><path
             d="m 0,0 0,44.118 5.807,0 0,-17.536 0.117,0 c 2.204,3.426 5.501,5.011 9.96,5.011 8.006,0 10.511,-5.319 10.511,-10.812 l 0,-20.781 -5.802,0 0,18.147 c 0,5.383 -1.407,8.862 -6.847,8.987 C 11.425,27.196 7.879,25.424 6.781,22.856 5.438,19.677 5.807,17.48 5.807,15.766 L 5.807,0 0,0 z"
             style="fill:#231f20;fill-opacity:1;fill-rule:nonzero;stroke:none"
             id="path3132"
             inkscape:connector-curvature="0" /></g><path
           d="m 407.061,299.088 5.803,0 0,-30.676 -5.803,0 0,30.676 z m -0.551,13.442 6.902,0 0,-6.288 -6.902,0 0,6.288 z"
           style="fill:#231f20;fill-opacity:1;fill-rule:nonzero;stroke:none"
           id="path3134"
           inkscape:connector-curvature="0" /><g
           id="g3136"
           transform="translate(439.6738,289.252)"><path
             d="m 0,0 c -0.302,3.851 -2.138,6.534 -6.291,6.534 -5.559,0 -7.699,-4.822 -7.699,-12.032 0,-7.212 2.14,-12.04 7.699,-12.04 3.85,0 6.232,2.504 6.54,6.904 l 5.805,0 c -0.491,-6.904 -5.622,-11.117 -12.406,-11.117 -9.84,0 -13.752,6.961 -13.752,16.01 0,8.979 4.527,16.494 14.243,16.494 C 0.615,10.753 5.501,6.659 5.808,0 L 0,0 z"
             style="fill:#231f20;fill-opacity:1;fill-rule:nonzero;stroke:none"
             id="path3138"
             inkscape:connector-curvature="0" /></g><g
           id="g3140"
           transform="translate(465.2051,271.7139)"><path
             d="M 0,0 C 6.904,0 9.168,5.501 9.168,12.04 9.168,18.576 6.904,24.072 0,24.072 -6.904,24.072 -9.162,18.576 -9.162,12.04 -9.162,5.501 -6.904,0 0,0 M 15.275,12.04 C 15.275,2.504 10.084,-4.213 0,-4.213 c -10.082,0 -15.276,6.717 -15.276,16.253 0,9.528 5.194,16.251 15.276,16.251 10.084,0 15.275,-6.723 15.275,-16.251"
             style="fill:#231f20;fill-opacity:1;fill-rule:nonzero;stroke:none"
             id="path3142"
             inkscape:connector-curvature="0" /></g><g
           id="g3144"
           transform="translate(508.6914,299.0879)"><path
             d="m 0,0 5.803,0 0,-30.676 -5.684,0 0,4.524 -0.119,0 c -2.32,-3.851 -6.232,-5.435 -10.51,-5.435 -6.414,0 -10.084,4.887 -10.084,11.059 l 0,20.528 5.809,0 0,-18.147 c 0,-5.316 1.217,-9.227 6.779,-9.227 2.383,0 5.621,1.222 6.842,4.4 1.1,2.871 1.164,6.474 1.164,7.208 L 0,0 z"
             style="fill:#231f20;fill-opacity:1;fill-rule:nonzero;stroke:none"
             id="path3146"
             inkscape:connector-curvature="0" /></g><g
           id="g3148"
           transform="translate(524.4961,299.0879)"><path
             d="m 0,0 0,6.54 5.803,1.83 0,-8.37 7.088,0.183 0,-4.335 -7.088,0.058 0,-19.801 c 0,-2.197 1.711,-3.235 3.791,-3.235 0.914,0 2.138,0.121 3.054,0.365 l 0,-4.457 c -1.347,-0.062 -2.627,-0.365 -3.976,-0.365 -1.399,0 -2.504,0.058 -3.908,0.303 -0.916,0.181 -2.444,0.672 -3.42,2.013 C 0.303,-27.804 0,-27.677 0,-23.588 l 0,19.494 -5.258,-0.058 0,4.335 L 0,0 z"
             style="fill:#231f20;fill-opacity:1;fill-rule:nonzero;stroke:none"
             id="path3150"
             inkscape:connector-curvature="0" /></g><path
           d="m 543.432,299.088 5.803,0 0,-30.676 -5.803,0 0,30.676 z m -0.549,13.442 6.9,0 0,-6.288 -6.9,0 0,6.288 z"
           style="fill:#231f20;fill-opacity:1;fill-rule:nonzero;stroke:none"
           id="path3152"
           inkscape:connector-curvature="0" /><g
           id="g3154"
           transform="translate(564.623,294.6865)"><path
             d="m 0,0 0.123,0 c 1.832,3.854 5.623,5.318 8.736,5.318 5.807,0 9.227,-1.955 10.817,-5.742 2.199,3.787 5.683,5.742 10.203,5.742 7.088,0 11.428,-4.459 11.428,-9.96 l 0,-21.632 -5.805,0 0,18.147 c 0,4.219 -0.613,8.986 -7.395,8.986 -1.773,0 -5.683,-0.975 -6.783,-4.767 -0.793,-2.814 -0.609,-5.863 -0.609,-6.601 l 0,-15.765 -5.807,0 0,18.147 c 0,5.316 -1.222,8.986 -6.783,8.986 -2.379,0 -5.805,-0.917 -7.578,-5.011 -0.668,-1.59 -0.424,-5.619 -0.424,-6.357 l 0,-15.765 -5.807,0 0,30.675 L 0,4.401 0,0 z"
             style="fill:#231f20;fill-opacity:1;fill-rule:nonzero;stroke:none"
             id="path3156"
             inkscape:connector-curvature="0" /></g><path
           d="m 615.613,299.088 5.803,0 0,-30.676 -5.803,0 0,30.676 z m -0.549,13.442 6.902,0 0,-6.288 -6.902,0 0,6.288 z"
           style="fill:#231f20;fill-opacity:1;fill-rule:nonzero;stroke:none"
           id="path3158"
           inkscape:connector-curvature="0" /></g></g></g></svg>